<mxfile host="drawio-plugin" modified="2025-03-01T15:58:12.525Z" agent="5.0 (Windows NT 6.2; Win64; x64) AppleWebKit/537.36 (KHTML, like Gecko) Chrome/104.0.5112.102 Safari/537.36" etag="wuL73Q1txsqq5vNZOsG_" version="20.5.3" type="embed"><diagram id="23iRSUPoRavnBvh4doch" name="Page-1"><mxGraphModel dx="-2255" dy="-4072" grid="1" gridSize="10" guides="1" tooltips="1" connect="1" arrows="1" fold="1" page="1" pageScale="1" pageWidth="827" pageHeight="1169" math="0" shadow="0"><root><mxCell id="0"/><mxCell id="1" parent="0"/><mxCell id="2" style="edgeStyle=orthogonalEdgeStyle;rounded=0;orthogonalLoop=1;jettySize=auto;html=1;entryX=0;entryY=0.5;entryDx=0;entryDy=0;endArrow=none;startFill=0;" edge="1" parent="1"><mxGeometry relative="1" as="geometry"><mxPoint x="2585.6400000000003" y="5650" as="sourcePoint"/><mxPoint x="2835.6400000000003" y="5650" as="targetPoint"/></mxGeometry></mxCell><mxCell id="3" value="User" style="shape=umlActor;verticalLabelPosition=bottom;verticalAlign=top;html=1;outlineConnect=0;" vertex="1" parent="1"><mxGeometry x="2545.6400000000003" y="5610" width="35" height="70" as="geometry"/></mxCell><mxCell id="4" value=":Frontend" style="rounded=0;whiteSpace=wrap;html=1;" vertex="1" parent="1"><mxGeometry x="2824.7300000000005" y="5625" width="130.91" height="40" as="geometry"/></mxCell><mxCell id="5" value="" style="endArrow=classic;html=1;rounded=0;" edge="1" parent="1"><mxGeometry width="50" height="50" relative="1" as="geometry"><mxPoint x="2595.6400000000003" y="5635" as="sourcePoint"/><mxPoint x="2815.6400000000003" y="5635" as="targetPoint"/></mxGeometry></mxCell><mxCell id="6" value="" style="endArrow=classic;html=1;rounded=0;dashed=1;" edge="1" parent="1"><mxGeometry width="50" height="50" relative="1" as="geometry"><mxPoint x="2805.6400000000003" y="5665" as="sourcePoint"/><mxPoint x="2595.6400000000003" y="5665" as="targetPoint"/></mxGeometry></mxCell><mxCell id="7" value="&amp;nbsp;:Router" style="rounded=0;whiteSpace=wrap;html=1;" vertex="1" parent="1"><mxGeometry x="3285.6400000000003" y="5625" width="130.91" height="40" as="geometry"/></mxCell><mxCell id="8" style="edgeStyle=orthogonalEdgeStyle;rounded=0;orthogonalLoop=1;jettySize=auto;html=1;entryX=0;entryY=0.5;entryDx=0;entryDy=0;endArrow=none;startFill=0;" edge="1" parent="1" target="7"><mxGeometry relative="1" as="geometry"><mxPoint x="2965.6400000000003" y="5645" as="sourcePoint"/><mxPoint x="3281.55" y="5645" as="targetPoint"/></mxGeometry></mxCell><mxCell id="9" value="" style="endArrow=classic;html=1;rounded=0;" edge="1" parent="1"><mxGeometry width="50" height="50" relative="1" as="geometry"><mxPoint x="2975.6400000000003" y="5630" as="sourcePoint"/><mxPoint x="3275.6400000000003" y="5630" as="targetPoint"/></mxGeometry></mxCell><mxCell id="10" value=":ClassController&amp;nbsp;" style="rounded=0;whiteSpace=wrap;html=1;" vertex="1" parent="1"><mxGeometry x="3776.55" y="5625" width="130.91" height="40" as="geometry"/></mxCell><mxCell id="11" style="edgeStyle=orthogonalEdgeStyle;rounded=0;orthogonalLoop=1;jettySize=auto;html=1;entryX=0;entryY=0.5;entryDx=0;entryDy=0;endArrow=none;startFill=0;" edge="1" parent="1" target="10"><mxGeometry relative="1" as="geometry"><mxPoint x="3416.55" y="5645" as="sourcePoint"/><mxPoint x="3621.55" y="5645" as="targetPoint"/></mxGeometry></mxCell><mxCell id="12" value="" style="endArrow=classic;html=1;rounded=0;dashed=1;" edge="1" parent="1"><mxGeometry width="50" height="50" relative="1" as="geometry"><mxPoint x="3755.6400000000003" y="5660" as="sourcePoint"/><mxPoint x="3435.6400000000003" y="5660" as="targetPoint"/></mxGeometry></mxCell><mxCell id="13" value=":ClassService&amp;nbsp;" style="rounded=0;whiteSpace=wrap;html=1;" vertex="1" parent="1"><mxGeometry x="4236.55" y="5625" width="130.91" height="40" as="geometry"/></mxCell><mxCell id="14" style="edgeStyle=orthogonalEdgeStyle;rounded=0;orthogonalLoop=1;jettySize=auto;html=1;entryX=0;entryY=0.5;entryDx=0;entryDy=0;endArrow=none;startFill=0;" edge="1" parent="1" target="13"><mxGeometry relative="1" as="geometry"><mxPoint x="3907.46" y="5645" as="sourcePoint"/><mxPoint x="4112.46" y="5645" as="targetPoint"/></mxGeometry></mxCell><mxCell id="15" value="" style="endArrow=classic;html=1;rounded=0;" edge="1" parent="1"><mxGeometry width="50" height="50" relative="1" as="geometry"><mxPoint x="3932.46" y="5630" as="sourcePoint"/><mxPoint x="4226.55" y="5630" as="targetPoint"/></mxGeometry></mxCell><mxCell id="16" value="" style="endArrow=classic;html=1;rounded=0;dashed=1;" edge="1" parent="1"><mxGeometry width="50" height="50" relative="1" as="geometry"><mxPoint x="4226.55" y="5660" as="sourcePoint"/><mxPoint x="3926.55" y="5660" as="targetPoint"/></mxGeometry></mxCell><mxCell id="17" style="edgeStyle=orthogonalEdgeStyle;rounded=0;orthogonalLoop=1;jettySize=auto;html=1;endArrow=none;startFill=0;" edge="1" parent="1" source="18"><mxGeometry relative="1" as="geometry"><mxPoint x="5116.55" y="5645" as="targetPoint"/></mxGeometry></mxCell><mxCell id="18" value=":ClassRepository" style="rounded=0;whiteSpace=wrap;html=1;" vertex="1" parent="1"><mxGeometry x="4576.55" y="5625" width="130.91" height="40" as="geometry"/></mxCell><mxCell id="19" style="edgeStyle=orthogonalEdgeStyle;rounded=0;orthogonalLoop=1;jettySize=auto;html=1;entryX=0;entryY=0.5;entryDx=0;entryDy=0;endArrow=none;startFill=0;" edge="1" parent="1" target="18"><mxGeometry relative="1" as="geometry"><mxPoint x="4367.46" y="5645" as="sourcePoint"/><mxPoint x="4572.46" y="5645" as="targetPoint"/></mxGeometry></mxCell><mxCell id="20" value="" style="endArrow=classic;html=1;rounded=0;" edge="1" parent="1"><mxGeometry width="50" height="50" relative="1" as="geometry"><mxPoint x="4392.46" y="5630" as="sourcePoint"/><mxPoint x="4552.46" y="5630" as="targetPoint"/></mxGeometry></mxCell><mxCell id="21" value="" style="endArrow=classic;html=1;rounded=0;dashed=1;" edge="1" parent="1"><mxGeometry width="50" height="50" relative="1" as="geometry"><mxPoint x="4556.55" y="5660" as="sourcePoint"/><mxPoint x="4396.55" y="5660" as="targetPoint"/></mxGeometry></mxCell><mxCell id="22" value="1. GET /api/classes?joined=true&lt;div&gt;19. GET /api/courses?classID={classID}&lt;/div&gt;&lt;div&gt;37. GET /api/quizzes?courseID={courseID}&lt;/div&gt;&lt;div&gt;&amp;nbsp;60. GET /api/quizHistory?quizID={quizID}&lt;/div&gt;&lt;div&gt;88. POST /api/quizAnswer&lt;/div&gt;" style="text;html=1;align=center;verticalAlign=middle;resizable=0;points=[];autosize=1;strokeColor=none;fillColor=none;" vertex="1" parent="1"><mxGeometry x="2996.46" y="5540" width="250" height="90" as="geometry"/></mxCell><mxCell id="23" value="&amp;nbsp;:Database" style="rounded=0;whiteSpace=wrap;html=1;" vertex="1" parent="1"><mxGeometry x="5105.64" y="5630" width="130.91" height="40" as="geometry"/></mxCell><mxCell id="24" value="&lt;div&gt;Take Quiz&lt;/div&gt;" style="text;html=1;align=center;verticalAlign=middle;whiteSpace=wrap;rounded=0;fontSize=20;" vertex="1" parent="1"><mxGeometry x="4878.59" y="5190" width="345" height="30" as="geometry"/></mxCell><mxCell id="25" value="" style="endArrow=classic;html=1;rounded=0;dashed=1;entryX=0.269;entryY=-0.044;entryDx=0;entryDy=0;entryPerimeter=0;" edge="1" parent="1"><mxGeometry width="50" height="50" relative="1" as="geometry"><mxPoint x="3275.6400000000003" y="5661" as="sourcePoint"/><mxPoint x="2975.170000000001" y="5661.04" as="targetPoint"/></mxGeometry></mxCell><mxCell id="26" value="" style="endArrow=classic;html=1;rounded=0;" edge="1" parent="1"><mxGeometry width="50" height="50" relative="1" as="geometry"><mxPoint x="4726.55" y="5629.38" as="sourcePoint"/><mxPoint x="5096.55" y="5630" as="targetPoint"/></mxGeometry></mxCell><mxCell id="27" value="" style="endArrow=classic;html=1;rounded=0;dashed=1;" edge="1" parent="1"><mxGeometry width="50" height="50" relative="1" as="geometry"><mxPoint x="5086.55" y="5660" as="sourcePoint"/><mxPoint x="4726.55" y="5660" as="targetPoint"/></mxGeometry></mxCell><mxCell id="28" value="&amp;nbsp;" style="text;html=1;align=center;verticalAlign=middle;resizable=0;points=[];autosize=1;strokeColor=none;fillColor=none;" vertex="1" parent="1"><mxGeometry x="3515.6400000000003" y="5675" width="30" height="30" as="geometry"/></mxCell><mxCell id="29" value="&lt;div&gt;&lt;span style=&quot;background-color: transparent; color: light-dark(rgb(0, 0, 0), rgb(255, 255, 255));&quot;&gt;11.&lt;/span&gt;&lt;span style=&quot;background-color: transparent; color: light-dark(rgb(0, 0, 0), rgb(255, 255, 255));&quot;&gt;&amp;nbsp;errorResponse(404, &quot;ไม่พบข้อมูล class&quot;)&lt;/span&gt;&lt;/div&gt;&lt;div&gt;16. successResponse(200, classList)&lt;/div&gt;&lt;div&gt;29.&amp;nbsp;&lt;span style=&quot;background-color: transparent; color: light-dark(rgb(0, 0, 0), rgb(255, 255, 255));&quot;&gt;errorResponse(404, &quot;ไม่พบข้อมูล course&quot;)&lt;/span&gt;&lt;/div&gt;&lt;div&gt;&lt;span style=&quot;background-color: transparent; color: light-dark(rgb(0, 0, 0), rgb(255, 255, 255));&quot;&gt;34&lt;/span&gt;&lt;span style=&quot;background-color: transparent; color: light-dark(rgb(0, 0, 0), rgb(255, 255, 255));&quot;&gt;. successResponse(200, courseList)&lt;/span&gt;&lt;/div&gt;&lt;div&gt;&lt;span style=&quot;color: rgba(0, 0, 0, 0); font-family: monospace; font-size: 0px; text-align: start;&quot;&gt;%3CmxGraphModel%3E%3Croot%3E%3CmxCell%20id%3D%220%22%2F%3E%3CmxCell%20id%3D%221%22%20parent%3D%220%22%2F%3E%3CmxCell%20id%3D%222%22%20value%3D%2256.%20successResquest(200%2C%20quizList)%22%20style%3D%22text%3Bhtml%3D1%3Balign%3Dcenter%3BverticalAlign%3Dmiddle%3Bresizable%3D0%3Bpoints%3D%5B%5D%3Bautosize%3D1%3BstrokeColor%3Dnone%3BfillColor%3Dnone%3B%22%20vertex%3D%221%22%20parent%3D%221%22%3E%3CmxGeometry%20x%3D%225775.37%22%20y%3D%225220%22%20width%3D%22210%22%20height%3D%2230%22%20as%3D%22geometry%22%2F%3E%3C%2FmxCell%3E%3C%2Froot%3E%3C%2FmxGraphModel%3E&amp;nbsp;&lt;/span&gt;&lt;span style=&quot;background-color: transparent; color: light-dark(rgb(0, 0, 0), rgb(255, 255, 255));&quot;&gt;&lt;/span&gt;&lt;span style=&quot;color: rgba(0, 0, 0, 0); font-family: monospace; font-size: 0px; text-align: start; background-color: transparent;&quot;&gt;%3CmxGraphModel%3E%3Croot%3E%3CmxCell%20id%3D%220%22%2F%3E%3CmxCell%20id%3D%221%22%20parent%3D%220%22%2F%3E%3CmxCell%20id%3D%222%22%20value%3D%2256.%20successResquest(200%2C%20quizList)%22%20style%3D%22text%3Bhtml%3D1%3Balign%3Dcenter%3BverticalAlign%3Dmiddle%3Bresizable%3D0%3Bpoints%3D%5B%5D%3Bautosize%3D1%3BstrokeColor%3Dnone%3BfillColor%3Dnone%3B%22%20vertex%3D%221%22%20parent%3D%221%22%3E%3CmxGeometry%20x%3D%225775.37%22%20y%3D%225220%22%20width%3D%22210%22%20height%3D%2230%22%20as%3D%22geometry%22%2F%3E%3C%2FmxCell%3E%3C%2Froot%3E%3C%2FmxGraphModel%3E&lt;/span&gt;&lt;span style=&quot;background-color: transparent; color: light-dark(rgb(0, 0, 0), rgb(255, 255, 255));&quot;&gt;57. successResquest(200, quizList)&lt;/span&gt;&lt;/div&gt;&lt;div&gt;&lt;span style=&quot;background-color: transparent; color: light-dark(rgb(0, 0, 0), rgb(255, 255, 255));&quot;&gt;&amp;nbsp; 82.&amp;nbsp;&lt;/span&gt;&lt;span style=&quot;background-color: transparent; color: light-dark(rgb(0, 0, 0), rgb(255, 255, 255));&quot;&gt;successResponse(200, &quot;noHistory&quot;)&lt;/span&gt;&lt;/div&gt;&lt;div&gt;85. successResponse(200, &quot;quizHistory&quot;)&lt;/div&gt;&lt;div&gt;94. errorResponse(400, &quot;ข้อมูลไม่ครบถ้วน&quot;)&lt;/div&gt;&lt;div&gt;108.&lt;span style=&quot;background-color: transparent; color: light-dark(rgb(0, 0, 0), rgb(255, 255, 255));&quot;&gt;&amp;nbsp;successResponse(200, &quot;บันทึกคำตอบสำเร็จ&quot;)&lt;/span&gt;&lt;/div&gt;&lt;div&gt;&lt;span style=&quot;background-color: transparent; color: light-dark(rgb(0, 0, 0), rgb(255, 255, 255));&quot;&gt;111. errorResponse(500, &quot;บันทึกคำตอบไม่สำเร็จ&quot;)&lt;/span&gt;&lt;/div&gt;" style="text;html=1;align=center;verticalAlign=middle;resizable=0;points=[];autosize=1;strokeColor=none;fillColor=none;" vertex="1" parent="1"><mxGeometry x="2976.46" y="5660" width="290" height="160" as="geometry"/></mxCell><mxCell id="30" value="12. [ไม่พบข้อมูล class ]&lt;div&gt;17. แสดงรายการ class&lt;/div&gt;&lt;div&gt;30. แสดงข้อความ &quot;ไม่พบข้อมูล course&quot;&lt;/div&gt;&lt;div&gt;35. แสดงรายการ course&lt;/div&gt;&lt;div&gt;58. แสดงรายการ quiz&lt;/div&gt;&lt;div&gt;83. แสดง quiz โดยไม่มีประวัติ&lt;/div&gt;&lt;div&gt;86. แสดง quiz พร้อมประวัติ&lt;/div&gt;&lt;div&gt;95. แสดงข้อความ &quot;ข้อมูลไม่ครบถ้วน&quot;&lt;/div&gt;&lt;div&gt;109. แสดงข้อความ &quot;บันทึกคำตอบสำเร็จ&quot;&lt;/div&gt;&lt;div&gt;112. แสดงข้อความ &quot;&quot;บันทึกคำตอบไม่สำเร็จ&lt;/div&gt;" style="text;html=1;align=center;verticalAlign=middle;resizable=0;points=[];autosize=1;strokeColor=none;fillColor=none;" vertex="1" parent="1"><mxGeometry x="2594.7300000000005" y="5670" width="240" height="160" as="geometry"/></mxCell><mxCell id="31" style="edgeStyle=orthogonalEdgeStyle;rounded=0;orthogonalLoop=1;jettySize=auto;html=1;entryX=0.5;entryY=1;entryDx=0;entryDy=0;endArrow=none;startFill=0;" edge="1" parent="1" source="32"><mxGeometry relative="1" as="geometry"><mxPoint x="3349.7300000000005" y="5665" as="targetPoint"/></mxGeometry></mxCell><mxCell id="32" value="&amp;nbsp;:Middleware" style="rounded=0;whiteSpace=wrap;html=1;" vertex="1" parent="1"><mxGeometry x="3284.7300000000005" y="5900" width="130.91" height="40" as="geometry"/></mxCell><mxCell id="33" value="" style="endArrow=classic;html=1;rounded=0;" edge="1" parent="1"><mxGeometry width="50" height="50" relative="1" as="geometry"><mxPoint x="3334.6400000000003" y="5690" as="sourcePoint"/><mxPoint x="3334.7300000000005" y="5890" as="targetPoint"/></mxGeometry></mxCell><mxCell id="34" value="" style="endArrow=classic;html=1;rounded=0;dashed=1;" edge="1" parent="1"><mxGeometry width="50" height="50" relative="1" as="geometry"><mxPoint x="3364.7300000000005" y="5890" as="sourcePoint"/><mxPoint x="3364.7300000000005" y="5690" as="targetPoint"/></mxGeometry></mxCell><mxCell id="35" value="2.&amp;nbsp;&lt;span style=&quot;color: rgba(0, 0, 0, 0); font-family: monospace; font-size: 0px; text-align: start;&quot;&gt;%3CmxGraphModel%3E%3Croot%3E%3CmxCell%20id%3D%220%22%2F%3E%3CmxCell%20id%3D%221%22%20parent%3D%220%22%2F%3E%3CmxCell%20id%3D%222%22%20style%3D%22edgeStyle%3DorthogonalEdgeStyle%3Brounded%3D0%3BorthogonalLoop%3D1%3BjettySize%3Dauto%3Bhtml%3D1%3BentryX%3D0%3BentryY%3D0.5%3BentryDx%3D0%3BentryDy%3D0%3BendArrow%3Dnone%3BstartFill%3D0%3B%22%20edge%3D%221%22%20parent%3D%221%22%3E%3CmxGeometry%20relative%3D%221%22%20as%3D%22geometry%22%3E%3CmxPoint%20x%3D%22-2250%22%20y%3D%222240%22%20as%3D%22sourcePoint%22%2F%3E%3CmxPoint%20x%3D%22-2000%22%20y%3D%222240%22%20as%3D%22targetPoint%22%2F%3E%3C%2FmxGeometry%3E%3C%2FmxCell%3E%3CmxCell%20id%3D%223%22%20value%3D%22User%22%20style%3D%22shape%3DumlActor%3BverticalLabelPosition%3Dbottom%3BverticalAlign%3Dtop%3Bhtml%3D1%3BoutlineConnect%3D0%3B%22%20vertex%3D%221%22%20parent%3D%221%22%3E%3CmxGeometry%20x%3D%22-2290%22%20y%3D%222200%22%20width%3D%2235%22%20height%3D%2270%22%20as%3D%22geometry%22%2F%3E%3C%2FmxCell%3E%3CmxCell%20id%3D%224%22%20value%3D%22%3AFrontend%22%20style%3D%22rounded%3D0%3BwhiteSpace%3Dwrap%3Bhtml%3D1%3B%22%20vertex%3D%221%22%20parent%3D%221%22%3E%3CmxGeometry%20x%3D%22-2000%22%20y%3D%222215%22%20width%3D%22130.91%22%20height%3D%2240%22%20as%3D%22geometry%22%2F%3E%3C%2FmxCell%3E%3CmxCell%20id%3D%225%22%20value%3D%22%22%20style%3D%22endArrow%3Dclassic%3Bhtml%3D1%3Brounded%3D0%3B%22%20edge%3D%221%22%20parent%3D%221%22%3E%3CmxGeometry%20width%3D%2250%22%20height%3D%2250%22%20relative%3D%221%22%20as%3D%22geometry%22%3E%3CmxPoint%20x%3D%22-2240%22%20y%3D%222225%22%20as%3D%22sourcePoint%22%2F%3E%3CmxPoint%20x%3D%22-2019.9999999999998%22%20y%3D%222225%22%20as%3D%22targetPoint%22%2F%3E%3C%2FmxGeometry%3E%3C%2FmxCell%3E%3CmxCell%20id%3D%226%22%20value%3D%22%22%20style%3D%22endArrow%3Dclassic%3Bhtml%3D1%3Brounded%3D0%3Bdashed%3D1%3B%22%20edge%3D%221%22%20parent%3D%221%22%3E%3CmxGeometry%20width%3D%2250%22%20height%3D%2250%22%20relative%3D%221%22%20as%3D%22geometry%22%3E%3CmxPoint%20x%3D%22-2029.9999999999998%22%20y%3D%222255%22%20as%3D%22sourcePoint%22%2F%3E%3CmxPoint%20x%3D%22-2240%22%20y%3D%222255%22%20as%3D%22targetPoint%22%2F%3E%3C%2FmxGeometry%3E%3C%2FmxCell%3E%3CmxCell%20id%3D%227%22%20value%3D%22%26amp%3Bnbsp%3B%3ARouter%22%20style%3D%22rounded%3D0%3BwhiteSpace%3Dwrap%3Bhtml%3D1%3B%22%20vertex%3D%221%22%20parent%3D%221%22%3E%3CmxGeometry%20x%3D%22-1660%22%20y%3D%222215%22%20width%3D%22130.91%22%20height%3D%2240%22%20as%3D%22geometry%22%2F%3E%3C%2FmxCell%3E%3CmxCell%20id%3D%228%22%20style%3D%22edgeStyle%3DorthogonalEdgeStyle%3Brounded%3D0%3BorthogonalLoop%3D1%3BjettySize%3Dauto%3Bhtml%3D1%3BentryX%3D0%3BentryY%3D0.5%3BentryDx%3D0%3BentryDy%3D0%3BendArrow%3Dnone%3BstartFill%3D0%3B%22%20edge%3D%221%22%20target%3D%227%22%20parent%3D%221%22%3E%3CmxGeometry%20relative%3D%221%22%20as%3D%22geometry%22%3E%3CmxPoint%20x%3D%22-1869.09%22%20y%3D%222235%22%20as%3D%22sourcePoint%22%2F%3E%3CmxPoint%20x%3D%22-1664.09%22%20y%3D%222235%22%20as%3D%22targetPoint%22%2F%3E%3C%2FmxGeometry%3E%3C%2FmxCell%3E%3CmxCell%20id%3D%229%22%20value%3D%22%22%20style%3D%22endArrow%3Dclassic%3Bhtml%3D1%3Brounded%3D0%3B%22%20edge%3D%221%22%20parent%3D%221%22%3E%3CmxGeometry%20width%3D%2250%22%20height%3D%2250%22%20relative%3D%221%22%20as%3D%22geometry%22%3E%3CmxPoint%20x%3D%22-1844.09%22%20y%3D%222220%22%20as%3D%22sourcePoint%22%2F%3E%3CmxPoint%20x%3D%22-1684.09%22%20y%3D%222220%22%20as%3D%22targetPoint%22%2F%3E%3C%2FmxGeometry%3E%3C%2FmxCell%3E%3CmxCell%20id%3D%2210%22%20value%3D%22%26amp%3Bnbsp%3B%22%20style%3D%22text%3BwhiteSpace%3Dwrap%3Bhtml%3D1%3B%22%20vertex%3D%221%22%20parent%3D%221%22%3E%3CmxGeometry%20x%3D%22-1760%22%20y%3D%222200%22%20width%3D%2240%22%20height%3D%2240%22%20as%3D%22geometry%22%2F%3E%3C%2FmxCell%3E%3CmxCell%20id%3D%2211%22%20value%3D%22%3AClassController%26amp%3Bnbsp%3B%22%20style%3D%22rounded%3D0%3BwhiteSpace%3Dwrap%3Bhtml%3D1%3B%22%20vertex%3D%221%22%20parent%3D%221%22%3E%3CmxGeometry%20x%3D%22-1169.09%22%20y%3D%222215%22%20width%3D%22130.91%22%20height%3D%2240%22%20as%3D%22geometry%22%2F%3E%3C%2FmxCell%3E%3CmxCell%20id%3D%2212%22%20style%3D%22edgeStyle%3DorthogonalEdgeStyle%3Brounded%3D0%3BorthogonalLoop%3D1%3BjettySize%3Dauto%3Bhtml%3D1%3BentryX%3D0%3BentryY%3D0.5%3BentryDx%3D0%3BentryDy%3D0%3BendArrow%3Dnone%3BstartFill%3D0%3B%22%20edge%3D%221%22%20target%3D%2211%22%20parent%3D%221%22%3E%3CmxGeometry%20relative%3D%221%22%20as%3D%22geometry%22%3E%3CmxPoint%20x%3D%22-1529.09%22%20y%3D%222235%22%20as%3D%22sourcePoint%22%2F%3E%3CmxPoint%20x%3D%22-1324.09%22%20y%3D%222235%22%20as%3D%22targetPoint%22%2F%3E%3C%2FmxGeometry%3E%3C%2FmxCell%3E%3CmxCell%20id%3D%2213%22%20value%3D%22%22%20style%3D%22endArrow%3Dclassic%3Bhtml%3D1%3Brounded%3D0%3B%22%20edge%3D%221%22%20parent%3D%221%22%3E%3CmxGeometry%20width%3D%2250%22%20height%3D%2250%22%20relative%3D%221%22%20as%3D%22geometry%22%3E%3CmxPoint%20x%3D%22-1504.09%22%20y%3D%222220%22%20as%3D%22sourcePoint%22%2F%3E%3CmxPoint%20x%3D%22-1190%22%20y%3D%222220%22%20as%3D%22targetPoint%22%2F%3E%3C%2FmxGeometry%3E%3C%2FmxCell%3E%3CmxCell%20id%3D%2214%22%20value%3D%22%22%20style%3D%22endArrow%3Dclassic%3Bhtml%3D1%3Brounded%3D0%3Bdashed%3D1%3B%22%20edge%3D%221%22%20parent%3D%221%22%3E%3CmxGeometry%20width%3D%2250%22%20height%3D%2250%22%20relative%3D%221%22%20as%3D%22geometry%22%3E%3CmxPoint%20x%3D%22-1190%22%20y%3D%222250%22%20as%3D%22sourcePoint%22%2F%3E%3CmxPoint%20x%3D%22-1510%22%20y%3D%222250%22%20as%3D%22targetPoint%22%2F%3E%3C%2FmxGeometry%3E%3C%2FmxCell%3E%3CmxCell%20id%3D%2215%22%20value%3D%22%3AClassService%26amp%3Bnbsp%3B%22%20style%3D%22rounded%3D0%3BwhiteSpace%3Dwrap%3Bhtml%3D1%3B%22%20vertex%3D%221%22%20parent%3D%221%22%3E%3CmxGeometry%20x%3D%22-709.09%22%20y%3D%222215%22%20width%3D%22130.91%22%20height%3D%2240%22%20as%3D%22geometry%22%2F%3E%3C%2FmxCell%3E%3CmxCell%20id%3D%2216%22%20style%3D%22edgeStyle%3DorthogonalEdgeStyle%3Brounded%3D0%3BorthogonalLoop%3D1%3BjettySize%3Dauto%3Bhtml%3D1%3BentryX%3D0%3BentryY%3D0.5%3BentryDx%3D0%3BentryDy%3D0%3BendArrow%3Dnone%3BstartFill%3D0%3B%22%20edge%3D%221%22%20target%3D%2215%22%20parent%3D%221%22%3E%3CmxGeometry%20relative%3D%221%22%20as%3D%22geometry%22%3E%3CmxPoint%20x%3D%22-1038.1799999999998%22%20y%3D%222235%22%20as%3D%22sourcePoint%22%2F%3E%3CmxPoint%20x%3D%22-833.18%22%20y%3D%222235%22%20as%3D%22targetPoint%22%2F%3E%3C%2FmxGeometry%3E%3C%2FmxCell%3E%3CmxCell%20id%3D%2217%22%20value%3D%22%22%20style%3D%22endArrow%3Dclassic%3Bhtml%3D1%3Brounded%3D0%3B%22%20edge%3D%221%22%20parent%3D%221%22%3E%3CmxGeometry%20width%3D%2250%22%20height%3D%2250%22%20relative%3D%221%22%20as%3D%22geometry%22%3E%3CmxPoint%20x%3D%22-1013.18%22%20y%3D%222220%22%20as%3D%22sourcePoint%22%2F%3E%3CmxPoint%20x%3D%22-719.09%22%20y%3D%222220%22%20as%3D%22targetPoint%22%2F%3E%3C%2FmxGeometry%3E%3C%2FmxCell%3E%3CmxCell%20id%3D%2218%22%20value%3D%22%22%20style%3D%22endArrow%3Dclassic%3Bhtml%3D1%3Brounded%3D0%3Bdashed%3D1%3B%22%20edge%3D%221%22%20parent%3D%221%22%3E%3CmxGeometry%20width%3D%2250%22%20height%3D%2250%22%20relative%3D%221%22%20as%3D%22geometry%22%3E%3CmxPoint%20x%3D%22-719.09%22%20y%3D%222250%22%20as%3D%22sourcePoint%22%2F%3E%3CmxPoint%20x%3D%22-1019.09%22%20y%3D%222250%22%20as%3D%22targetPoint%22%2F%3E%3C%2FmxGeometry%3E%3C%2FmxCell%3E%3CmxCell%20id%3D%2219%22%20style%3D%22edgeStyle%3DorthogonalEdgeStyle%3Brounded%3D0%3BorthogonalLoop%3D1%3BjettySize%3Dauto%3Bhtml%3D1%3BendArrow%3Dnone%3BstartFill%3D0%3B%22%20edge%3D%221%22%20source%3D%2220%22%20parent%3D%221%22%3E%3CmxGeometry%20relative%3D%221%22%20as%3D%22geometry%22%3E%3CmxPoint%20x%3D%22170.91%22%20y%3D%222235%22%20as%3D%22targetPoint%22%2F%3E%3C%2FmxGeometry%3E%3C%2FmxCell%3E%3CmxCell%20id%3D%2220%22%20value%3D%22%3AClassRepository%22%20style%3D%22rounded%3D0%3BwhiteSpace%3Dwrap%3Bhtml%3D1%3B%22%20vertex%3D%221%22%20parent%3D%221%22%3E%3CmxGeometry%20x%3D%22-369.0899999999999%22%20y%3D%222215%22%20width%3D%22130.91%22%20height%3D%2240%22%20as%3D%22geometry%22%2F%3E%3C%2FmxCell%3E%3CmxCell%20id%3D%2221%22%20style%3D%22edgeStyle%3DorthogonalEdgeStyle%3Brounded%3D0%3BorthogonalLoop%3D1%3BjettySize%3Dauto%3Bhtml%3D1%3BentryX%3D0%3BentryY%3D0.5%3BentryDx%3D0%3BentryDy%3D0%3BendArrow%3Dnone%3BstartFill%3D0%3B%22%20edge%3D%221%22%20target%3D%2220%22%20parent%3D%221%22%3E%3CmxGeometry%20relative%3D%221%22%20as%3D%22geometry%22%3E%3CmxPoint%20x%3D%22-578.1799999999998%22%20y%3D%222235%22%20as%3D%22sourcePoint%22%2F%3E%3CmxPoint%20x%3D%22-373.17999999999984%22%20y%3D%222235%22%20as%3D%22targetPoint%22%2F%3E%3C%2FmxGeometry%3E%3C%2FmxCell%3E%3CmxCell%20id%3D%2222%22%20value%3D%22%22%20style%3D%22endArrow%3Dclassic%3Bhtml%3D1%3Brounded%3D0%3B%22%20edge%3D%221%22%20parent%3D%221%22%3E%3CmxGeometry%20width%3D%2250%22%20height%3D%2250%22%20relative%3D%221%22%20as%3D%22geometry%22%3E%3CmxPoint%20x%3D%22-553.18%22%20y%3D%222220%22%20as%3D%22sourcePoint%22%2F%3E%3CmxPoint%20x%3D%22-393.1799999999997%22%20y%3D%222220%22%20as%3D%22targetPoint%22%2F%3E%3C%2FmxGeometry%3E%3C%2FmxCell%3E%3CmxCell%20id%3D%2223%22%20value%3D%22%22%20style%3D%22endArrow%3Dclassic%3Bhtml%3D1%3Brounded%3D0%3Bdashed%3D1%3B%22%20edge%3D%221%22%20parent%3D%221%22%3E%3CmxGeometry%20width%3D%2250%22%20height%3D%2250%22%20relative%3D%221%22%20as%3D%22geometry%22%3E%3CmxPoint%20x%3D%22-389.09000000000003%22%20y%3D%222250%22%20as%3D%22sourcePoint%22%2F%3E%3CmxPoint%20x%3D%22-549.09%22%20y%3D%222250%22%20as%3D%22targetPoint%22%2F%3E%3C%2FmxGeometry%3E%3C%2FmxCell%3E%3CmxCell%20id%3D%2224%22%20value%3D%22GET%20%2Fapi%2Fclasses%3Fadmin%3Dtrue%26lt%3Bdiv%26gt%3BPOST%20%2Fapi%2Fclasses%2Fedit%20(classID%2C%20updatedData)%26lt%3B%2Fdiv%26gt%3B%22%20style%3D%22text%3Bhtml%3D1%3Balign%3Dcenter%3BverticalAlign%3Dmiddle%3Bresizable%3D0%3Bpoints%3D%5B%5D%3Bautosize%3D1%3BstrokeColor%3Dnone%3BfillColor%3Dnone%3B%22%20vertex%3D%221%22%20parent%3D%221%22%3E%3CmxGeometry%20x%3D%22-1905%22%20y%3D%222175%22%20width%3D%22270%22%20height%3D%2240%22%20as%3D%22geometry%22%2F%3E%3C%2FmxCell%3E%3CmxCell%20id%3D%2225%22%20value%3D%22%26amp%3Bnbsp%3B%3ADatabase%22%20style%3D%22rounded%3D0%3BwhiteSpace%3Dwrap%3Bhtml%3D1%3B%22%20vertex%3D%221%22%20parent%3D%221%22%3E%3CmxGeometry%20x%3D%22130.00000000000014%22%20y%3D%222215%22%20width%3D%22130.91%22%20height%3D%2240%22%20as%3D%22geometry%22%2F%3E%3C%2FmxCell%3E%3CmxCell%20id%3D%2226%22%20value%3D%22Edit%20Class%22%20style%3D%22text%3Bhtml%3D1%3Balign%3Dcenter%3BverticalAlign%3Dmiddle%3BwhiteSpace%3Dwrap%3Brounded%3D0%3BfontSize%3D20%3B%22%20vertex%3D%221%22%20parent%3D%221%22%3E%3CmxGeometry%20x%3D%22-1291.59%22%20y%3D%222050%22%20width%3D%22345%22%20height%3D%2230%22%20as%3D%22geometry%22%2F%3E%3C%2FmxCell%3E%3CmxCell%20id%3D%2227%22%20value%3D%22selectClass(classID)%26lt%3Bbr%26gt%3BsubmitEditForm(updated%20Data%2C%20classID)%22%20style%3D%22text%3Bhtml%3D1%3Balign%3Dcenter%3BverticalAlign%3Dmiddle%3Bresizable%3D0%3Bpoints%3D%5B%5D%3Bautosize%3D1%3BstrokeColor%3Dnone%3BfillColor%3Dnone%3B%22%20vertex%3D%221%22%20parent%3D%221%22%3E%3CmxGeometry%20x%3D%22-2240%22%20y%3D%222160%22%20width%3D%22230%22%20height%3D%2240%22%20as%3D%22geometry%22%2F%3E%3C%2FmxCell%3E%3CmxCell%20id%3D%2228%22%20value%3D%22%22%20style%3D%22endArrow%3Dclassic%3Bhtml%3D1%3Brounded%3D0%3Bdashed%3D1%3B%22%20edge%3D%221%22%20parent%3D%221%22%3E%3CmxGeometry%20width%3D%2250%22%20height%3D%2250%22%20relative%3D%221%22%20as%3D%22geometry%22%3E%3CmxPoint%20x%3D%22-1684.09%22%20y%3D%222250%22%20as%3D%22sourcePoint%22%2F%3E%3CmxPoint%20x%3D%22-1844.09%22%20y%3D%222250%22%20as%3D%22targetPoint%22%2F%3E%3C%2FmxGeometry%3E%3C%2FmxCell%3E%3CmxCell%20id%3D%2229%22%20value%3D%22%22%20style%3D%22endArrow%3Dclassic%3Bhtml%3D1%3Brounded%3D0%3B%22%20edge%3D%221%22%20parent%3D%221%22%3E%3CmxGeometry%20width%3D%2250%22%20height%3D%2250%22%20relative%3D%221%22%20as%3D%22geometry%22%3E%3CmxPoint%20x%3D%22-219.08999999999995%22%20y%3D%222219.38%22%20as%3D%22sourcePoint%22%2F%3E%3CmxPoint%20x%3D%22150.91000000000003%22%20y%3D%222220%22%20as%3D%22targetPoint%22%2F%3E%3C%2FmxGeometry%3E%3C%2FmxCell%3E%3CmxCell%20id%3D%2230%22%20value%3D%22%22%20style%3D%22endArrow%3Dclassic%3Bhtml%3D1%3Brounded%3D0%3Bdashed%3D1%3B%22%20edge%3D%221%22%20parent%3D%221%22%3E%3CmxGeometry%20width%3D%2250%22%20height%3D%2250%22%20relative%3D%221%22%20as%3D%22geometry%22%3E%3CmxPoint%20x%3D%22140.91000000000003%22%20y%3D%222250%22%20as%3D%22sourcePoint%22%2F%3E%3CmxPoint%20x%3D%22-219.09%22%20y%3D%222250%22%20as%3D%22targetPoint%22%2F%3E%3C%2FmxGeometry%3E%3C%2FmxCell%3E%3CmxCell%20id%3D%2231%22%20value%3D%22%26amp%3Bnbsp%3B%22%20style%3D%22text%3Bhtml%3D1%3Balign%3Dcenter%3BverticalAlign%3Dmiddle%3Bresizable%3D0%3Bpoints%3D%5B%5D%3Bautosize%3D1%3BstrokeColor%3Dnone%3BfillColor%3Dnone%3B%22%20vertex%3D%221%22%20parent%3D%221%22%3E%3CmxGeometry%20x%3D%22-1430%22%20y%3D%222265%22%20width%3D%2230%22%20height%3D%2230%22%20as%3D%22geometry%22%2F%3E%3C%2FmxCell%3E%3CmxCell%20id%3D%2232%22%20value%3D%22successResponse(200%2C%20classList)%26lt%3Bdiv%26gt%3BerrorResponse(400%2C%20%26quot%3BData%20incomplete%2Fincorrect%26quot%3B)%26lt%3B%2Fdiv%26gt%3B%26lt%3Bdiv%26gt%3BerrorResponse(500%2C%20%26quot%3BEdit%20failed%26quot%3B)%26lt%3B%2Fdiv%26gt%3B%26lt%3Bdiv%26gt%3BsuccessResponse(200%2C%20%26quot%3BEdit%20class%20successful%26quot%3B%2C%20updatedClass)%26lt%3B%2Fdiv%26gt%3B%22%20style%3D%22text%3Bhtml%3D1%3Balign%3Dcenter%3BverticalAlign%3Dmiddle%3Bresizable%3D0%3Bpoints%3D%5B%5D%3Bautosize%3D1%3BstrokeColor%3Dnone%3BfillColor%3Dnone%3B%22%20vertex%3D%221%22%20parent%3D%221%22%3E%3CmxGeometry%20x%3D%22-1945%22%20y%3D%222250%22%20width%3D%22350%22%20height%3D%2270%22%20as%3D%22geometry%22%2F%3E%3C%2FmxCell%3E%3CmxCell%20id%3D%2233%22%20value%3D%22displayClassList(classList)%26lt%3Bdiv%26gt%3BdisplayMessage(%26quot%3BEdit%20class%20successful%26quot%3B)%26lt%3B%2Fdiv%26gt%3B%22%20style%3D%22text%3Bhtml%3D1%3Balign%3Dcenter%3BverticalAlign%3Dmiddle%3Bresizable%3D0%3Bpoints%3D%5B%5D%3Bautosize%3D1%3BstrokeColor%3Dnone%3BfillColor%3Dnone%3B%22%20vertex%3D%221%22%20parent%3D%221%22%3E%3CmxGeometry%20x%3D%22-2245%22%20y%3D%222265%22%20width%3D%22240%22%20height%3D%2240%22%20as%3D%22geometry%22%2F%3E%3C%2FmxCell%3E%3CmxCell%20id%3D%2234%22%20style%3D%22edgeStyle%3DorthogonalEdgeStyle%3Brounded%3D0%3BorthogonalLoop%3D1%3BjettySize%3Dauto%3Bhtml%3D1%3BentryX%3D0.5%3BentryY%3D1%3BentryDx%3D0%3BentryDy%3D0%3BendArrow%3Dnone%3BstartFill%3D0%3B%22%20edge%3D%221%22%20source%3D%2235%22%20parent%3D%221%22%3E%3CmxGeometry%20relative%3D%221%22%20as%3D%22geometry%22%3E%3CmxPoint%20x%3D%22-1595.91%22%20y%3D%222255%22%20as%3D%22targetPoint%22%2F%3E%3C%2FmxGeometry%3E%3C%2FmxCell%3E%3CmxCell%20id%3D%2235%22%20value%3D%22%26amp%3Bnbsp%3B%3AMiddleware%22%20style%3D%22rounded%3D0%3BwhiteSpace%3Dwrap%3Bhtml%3D1%3B%22%20vertex%3D%221%22%20parent%3D%221%22%3E%3CmxGeometry%20x%3D%22-1660.91%22%20y%3D%222490%22%20width%3D%22130.91%22%20height%3D%2240%22%20as%3D%22geometry%22%2F%3E%3C%2FmxCell%3E%3CmxCell%20id%3D%2236%22%20value%3D%22%22%20style%3D%22endArrow%3Dclassic%3Bhtml%3D1%3Brounded%3D0%3B%22%20edge%3D%221%22%20parent%3D%221%22%3E%3CmxGeometry%20width%3D%2250%22%20height%3D%2250%22%20relative%3D%221%22%20as%3D%22geometry%22%3E%3CmxPoint%20x%3D%22-1611%22%20y%3D%222280%22%20as%3D%22sourcePoint%22%2F%3E%3CmxPoint%20x%3D%22-1610.91%22%20y%3D%222480%22%20as%3D%22targetPoint%22%2F%3E%3C%2FmxGeometry%3E%3C%2FmxCell%3E%3CmxCell%20id%3D%2237%22%20value%3D%22%22%20style%3D%22endArrow%3Dclassic%3Bhtml%3D1%3Brounded%3D0%3Bdashed%3D1%3B%22%20edge%3D%221%22%20parent%3D%221%22%3E%3CmxGeometry%20width%3D%2250%22%20height%3D%2250%22%20relative%3D%221%22%20as%3D%22geometry%22%3E%3CmxPoint%20x%3D%22-1580.91%22%20y%3D%222480%22%20as%3D%22sourcePoint%22%2F%3E%3CmxPoint%20x%3D%22-1580.91%22%20y%3D%222280%22%20as%3D%22targetPoint%22%2F%3E%3C%2FmxGeometry%3E%3C%2FmxCell%3E%3CmxCell%20id%3D%2238%22%20value%3D%22validateSession()%26lt%3Bdiv%26gt%3BvalidateRequest()%26lt%3B%2Fdiv%26gt%3B%22%20style%3D%22text%3Bhtml%3D1%3Balign%3Dcenter%3BverticalAlign%3Dmiddle%3Bresizable%3D0%3Bpoints%3D%5B%5D%3Bautosize%3D1%3BstrokeColor%3Dnone%3BfillColor%3Dnone%3B%22%20vertex%3D%221%22%20parent%3D%221%22%3E%3CmxGeometry%20x%3D%22-1735%22%20y%3D%222390%22%20width%3D%22120%22%20height%3D%2240%22%20as%3D%22geometry%22%2F%3E%3C%2FmxCell%3E%3CmxCell%20id%3D%2239%22%20value%3D%22%22%20style%3D%22endArrow%3Dclassic%3Bhtml%3D1%3Brounded%3D0%3BexitX%3D0.25%3BexitY%3D0%3BexitDx%3D0%3BexitDy%3D0%3BentryX%3D0.75%3BentryY%3D0%3BentryDx%3D0%3BentryDy%3D0%3B%22%20edge%3D%221%22%20source%3D%2211%22%20target%3D%2211%22%20parent%3D%221%22%3E%3CmxGeometry%20width%3D%2250%22%20height%3D%2250%22%20relative%3D%221%22%20as%3D%22geometry%22%3E%3CmxPoint%20x%3D%22-1169.09%22%20y%3D%222190%22%20as%3D%22sourcePoint%22%2F%3E%3CmxPoint%20x%3D%22-1039.09%22%20y%3D%222170%22%20as%3D%22targetPoint%22%2F%3E%3CArray%20as%3D%22points%22%3E%3CmxPoint%20x%3D%22-1135.35%22%20y%3D%222180%22%2F%3E%3CmxPoint%20x%3D%22-1135.0900000000001%22%20y%3D%222170%22%2F%3E%3CmxPoint%20x%3D%22-1069.09%22%20y%3D%222170%22%2F%3E%3C%2FArray%3E%3C%2FmxGeometry%3E%3C%2FmxCell%3E%3CmxCell%20id%3D%2240%22%20value%3D%22validateUpdatedData%26amp%3Bnbsp%3B%22%20style%3D%22text%3Bhtml%3D1%3Balign%3Dcenter%3BverticalAlign%3Dmiddle%3Bresizable%3D0%3Bpoints%3D%5B%5D%3Bautosize%3D1%3BstrokeColor%3Dnone%3BfillColor%3Dnone%3B%22%20vertex%3D%221%22%20parent%3D%221%22%3E%3CmxGeometry%20x%3D%22-1173.63%22%20y%3D%222125%22%20width%3D%22140%22%20height%3D%2230%22%20as%3D%22geometry%22%2F%3E%3C%2FmxCell%3E%3CmxCell%20id%3D%2241%22%20value%3D%22successResponse(200%2C%20classList)%26lt%3Bdiv%26gt%3B%5BinvalidData%20(7.1a)%5D%20returnError(%26quot%3BData%20incomplete%2Fincorrect%26quot%3B)%26lt%3B%2Fdiv%26gt%3B%26lt%3Bdiv%26gt%3BerrorResponse(500%2C%20%26quot%3BEdit%20failed%26quot%3B)%26lt%3B%2Fdiv%26gt%3B%26lt%3Bdiv%26gt%3BsuccessResponse(200%2C%20%26quot%3BEdit%20class%20successful%26quot%3B%2C%20updatedClass)%26lt%3B%2Fdiv%26gt%3B%22%20style%3D%22text%3Bhtml%3D1%3Balign%3Dcenter%3BverticalAlign%3Dmiddle%3Bresizable%3D0%3Bpoints%3D%5B%5D%3Bautosize%3D1%3BstrokeColor%3Dnone%3BfillColor%3Dnone%3B%22%20vertex%3D%221%22%20parent%3D%221%22%3E%3CmxGeometry%20x%3D%22-1530%22%20y%3D%222245%22%20width%3D%22350%22%20height%3D%2270%22%20as%3D%22geometry%22%2F%3E%3C%2FmxCell%3E%3CmxCell%20id%3D%2242%22%20style%3D%22edgeStyle%3DorthogonalEdgeStyle%3Brounded%3D0%3BorthogonalLoop%3D1%3BjettySize%3Dauto%3Bhtml%3D1%3BendArrow%3Dnone%3BstartFill%3D0%3BexitX%3D1%3BexitY%3D0.5%3BexitDx%3D0%3BexitDy%3D0%3B%22%20edge%3D%221%22%20source%3D%2235%22%20parent%3D%221%22%3E%3CmxGeometry%20relative%3D%221%22%20as%3D%22geometry%22%3E%3CmxPoint%20x%3D%22-1100%22%20y%3D%222256%22%20as%3D%22targetPoint%22%2F%3E%3CmxPoint%20x%3D%22-1424.79%22%20y%3D%222545%22%20as%3D%22sourcePoint%22%2F%3E%3CArray%20as%3D%22points%22%3E%3CmxPoint%20x%3D%22-1490%22%20y%3D%222510%22%2F%3E%3CmxPoint%20x%3D%22-1490%22%20y%3D%222420%22%2F%3E%3CmxPoint%20x%3D%22-1100%22%20y%3D%222420%22%2F%3E%3CmxPoint%20x%3D%22-1100%22%20y%3D%222256%22%2F%3E%3C%2FArray%3E%3C%2FmxGeometry%3E%3C%2FmxCell%3E%3CmxCell%20id%3D%2243%22%20value%3D%22getAdminClasses(userID)%26lt%3Bdiv%26gt%3BeditClass(classID%2C%20updated%20Data)%26lt%3B%2Fdiv%26gt%3B%22%20style%3D%22text%3Bhtml%3D1%3Balign%3Dcenter%3BverticalAlign%3Dmiddle%3Bresizable%3D0%3Bpoints%3D%5B%5D%3Bautosize%3D1%3BstrokeColor%3Dnone%3BfillColor%3Dnone%3B%22%20vertex%3D%221%22%20parent%3D%221%22%3E%3CmxGeometry%20x%3D%22-1395%22%20y%3D%222360%22%20width%3D%22200%22%20height%3D%2240%22%20as%3D%22geometry%22%2F%3E%3C%2FmxCell%3E%3CmxCell%20id%3D%2244%22%20value%3D%22%26amp%3Bnbsp%3B%22%20style%3D%22text%3Bhtml%3D1%3Balign%3Dcenter%3BverticalAlign%3Dmiddle%3Bresizable%3D0%3Bpoints%3D%5B%5D%3Bautosize%3D1%3BstrokeColor%3Dnone%3BfillColor%3Dnone%3B%22%20vertex%3D%221%22%20parent%3D%221%22%3E%3CmxGeometry%20x%3D%22-883.1800000000001%22%20y%3D%222180%22%20width%3D%2230%22%20height%3D%2230%22%20as%3D%22geometry%22%2F%3E%3C%2FmxCell%3E%3CmxCell%20id%3D%2245%22%20value%3D%22selectClassesByAdmin(userID)%26lt%3Bdiv%26gt%3BupdateClass(classID%2C%20updatedData)%26lt%3B%2Fdiv%26gt%3B%22%20style%3D%22text%3Bhtml%3D1%3Balign%3Dcenter%3BverticalAlign%3Dmiddle%3Bresizable%3D0%3Bpoints%3D%5B%5D%3Bautosize%3D1%3BstrokeColor%3Dnone%3BfillColor%3Dnone%3B%22%20vertex%3D%221%22%20parent%3D%221%22%3E%3CmxGeometry%20x%3D%22-573.1800000000001%22%20y%3D%222180%22%20width%3D%22210%22%20height%3D%2240%22%20as%3D%22geometry%22%2F%3E%3C%2FmxCell%3E%3CmxCell%20id%3D%2246%22%20value%3D%22SELECT%20id%2C%20name%2C%20description%2C%20privacy%20FROM%20classes%20WHERE%20owner_id%3D%3F%26lt%3Bdiv%26gt%3BUPDATE%20classes%20SET%20name%3D%3F%2C%20description%3D%3F%2C%20privacy%3D%3F%20WHERE%20id%3D%3F%26lt%3B%2Fdiv%26gt%3B%22%20style%3D%22text%3Bhtml%3D1%3Balign%3Dcenter%3BverticalAlign%3Dmiddle%3Bresizable%3D0%3Bpoints%3D%5B%5D%3Bautosize%3D1%3BstrokeColor%3Dnone%3BfillColor%3Dnone%3B%22%20vertex%3D%221%22%20parent%3D%221%22%3E%3CmxGeometry%20x%3D%22-224.09%22%20y%3D%222180%22%20width%3D%22420%22%20height%3D%2240%22%20as%3D%22geometry%22%2F%3E%3C%2FmxCell%3E%3CmxCell%20id%3D%2247%22%20value%3D%22classList%26lt%3Bdiv%26gt%3BaffectedRows%26lt%3B%2Fdiv%26gt%3B%22%20style%3D%22text%3Bhtml%3D1%3Balign%3Dcenter%3BverticalAlign%3Dmiddle%3Bresizable%3D0%3Bpoints%3D%5B%5D%3Bautosize%3D1%3BstrokeColor%3Dnone%3BfillColor%3Dnone%3B%22%20vertex%3D%221%22%20parent%3D%221%22%3E%3CmxGeometry%20x%3D%22-74.09%22%20y%3D%222255%22%20width%3D%22100%22%20height%3D%2240%22%20as%3D%22geometry%22%2F%3E%3C%2FmxCell%3E%3CmxCell%20id%3D%2248%22%20value%3D%22classList%26lt%3Bbr%26gt%3B%5BupdateFailure%20(5.1%20a)%5D%20returnError(%26quot%3BEdit%20failed%26quot%3B)%26lt%3Bdiv%26gt%3B%5BupdateSuccess%20(5.1)%5D%20returnClassRecord(updateClass)%26lt%3B%2Fdiv%26gt%3B%22%20style%3D%22text%3Bhtml%3D1%3Balign%3Dcenter%3BverticalAlign%3Dmiddle%3Bresizable%3D0%3Bpoints%3D%5B%5D%3Bautosize%3D1%3BstrokeColor%3Dnone%3BfillColor%3Dnone%3B%22%20vertex%3D%221%22%20parent%3D%221%22%3E%3CmxGeometry%20x%3D%22-629.09%22%20y%3D%222250%22%20width%3D%22320%22%20height%3D%2260%22%20as%3D%22geometry%22%2F%3E%3C%2FmxCell%3E%3CmxCell%20id%3D%2249%22%20value%3D%22classList%26amp%3Bnbsp%3B%26lt%3Bdiv%26gt%3BreturnError(%26quot%3BEdit%20failed%26quot%3B)%26lt%3B%2Fdiv%26gt%3B%26lt%3Bdiv%26gt%3B%26amp%3Bnbsp%3BreturnClassRecord(updateClass)%26lt%3B%2Fdiv%26gt%3B%22%20style%3D%22text%3Bhtml%3D1%3Balign%3Dcenter%3BverticalAlign%3Dmiddle%3Bresizable%3D0%3Bpoints%3D%5B%5D%3Bautosize%3D1%3BstrokeColor%3Dnone%3BfillColor%3Dnone%3B%22%20vertex%3D%221%22%20parent%3D%221%22%3E%3CmxGeometry%20x%3D%22-968.1800000000001%22%20y%3D%222250%22%20width%3D%22200%22%20height%3D%2260%22%20as%3D%22geometry%22%2F%3E%3C%2FmxCell%3E%3CmxCell%20id%3D%2250%22%20value%3D%22getAdminClasses(userID)%26lt%3Bdiv%26gt%3B%5BvalidData(7.1)%5D%20editClass(classID%2C%20updatedData)%26lt%3B%2Fdiv%26gt%3B%22%20style%3D%22text%3Bhtml%3D1%3Balign%3Dcenter%3BverticalAlign%3Dmiddle%3Bresizable%3D0%3Bpoints%3D%5B%5D%3Bautosize%3D1%3BstrokeColor%3Dnone%3BfillColor%3Dnone%3B%22%20vertex%3D%221%22%20parent%3D%221%22%3E%3CmxGeometry%20x%3D%22-1008.1800000000001%22%20y%3D%222175%22%20width%3D%22280%22%20height%3D%2240%22%20as%3D%22geometry%22%2F%3E%3C%2FmxCell%3E%3CmxCell%20id%3D%2251%22%20value%3D%22%22%20style%3D%22endArrow%3Dclassic%3Bhtml%3D1%3Brounded%3D0%3B%22%20edge%3D%221%22%20parent%3D%221%22%3E%3CmxGeometry%20width%3D%2250%22%20height%3D%2250%22%20relative%3D%221%22%20as%3D%22geometry%22%3E%3CmxPoint%20x%3D%22-1519.09%22%20y%3D%222496%22%20as%3D%22sourcePoint%22%2F%3E%3CmxPoint%20x%3D%22-1120%22%20y%3D%222265%22%20as%3D%22targetPoint%22%2F%3E%3CArray%20as%3D%22points%22%3E%3CmxPoint%20x%3D%22-1499.09%22%20y%3D%222496%22%2F%3E%3CmxPoint%20x%3D%22-1499.09%22%20y%3D%222406%22%2F%3E%3CmxPoint%20x%3D%22-1120%22%20y%3D%222410%22%2F%3E%3CmxPoint%20x%3D%22-1120%22%20y%3D%222330%22%2F%3E%3C%2FArray%3E%3C%2FmxGeometry%3E%3C%2FmxCell%3E%3CmxCell%20id%3D%2252%22%20value%3D%22%22%20style%3D%22endArrow%3Dclassic%3Bhtml%3D1%3Brounded%3D0%3BexitX%3D0.25%3BexitY%3D0%3BexitDx%3D0%3BexitDy%3D0%3BentryX%3D0.75%3BentryY%3D0%3BentryDx%3D0%3BentryDy%3D0%3B%22%20edge%3D%221%22%20parent%3D%221%22%3E%3CmxGeometry%20width%3D%2250%22%20height%3D%2250%22%20relative%3D%221%22%20as%3D%22geometry%22%3E%3CmxPoint%20x%3D%22-677.0899999999999%22%20y%3D%222215%22%20as%3D%22sourcePoint%22%2F%3E%3CmxPoint%20x%3D%22-612.0899999999999%22%20y%3D%222215%22%20as%3D%22targetPoint%22%2F%3E%3CArray%20as%3D%22points%22%3E%3CmxPoint%20x%3D%22-676.44%22%20y%3D%222180%22%2F%3E%3CmxPoint%20x%3D%22-676.1800000000001%22%20y%3D%222170%22%2F%3E%3CmxPoint%20x%3D%22-610.1800000000001%22%20y%3D%222170%22%2F%3E%3C%2FArray%3E%3C%2FmxGeometry%3E%3C%2FmxCell%3E%3CmxCell%20id%3D%2253%22%20value%3D%2222.%20verifyCurrentPassword(userId%2C%20currentPassword)%22%20style%3D%22text%3Bhtml%3D1%3Balign%3Dcenter%3BverticalAlign%3Dmiddle%3Bresizable%3D0%3Bpoints%3D%5B%5D%3Bautosize%3D1%3BstrokeColor%3Dnone%3BfillColor%3Dnone%3B%22%20vertex%3D%221%22%20parent%3D%221%22%3E%3CmxGeometry%20x%3D%22-788.1800000000001%22%20y%3D%222130%22%20width%3D%22300%22%20height%3D%2230%22%20as%3D%22geometry%22%2F%3E%3C%2FmxCell%3E%3CmxCell%20id%3D%2254%22%20value%3D%22%22%20style%3D%22endArrow%3Dclassic%3Bhtml%3D1%3Brounded%3D0%3BexitX%3D0.25%3BexitY%3D0%3BexitDx%3D0%3BexitDy%3D0%3BentryX%3D0.75%3BentryY%3D0%3BentryDx%3D0%3BentryDy%3D0%3B%22%20edge%3D%221%22%20parent%3D%221%22%3E%3CmxGeometry%20width%3D%2250%22%20height%3D%2250%22%20relative%3D%221%22%20as%3D%22geometry%22%3E%3CmxPoint%20x%3D%22-1966.9099999999999%22%20y%3D%222215%22%20as%3D%22sourcePoint%22%2F%3E%3CmxPoint%20x%3D%22-1901.9099999999999%22%20y%3D%222215%22%20as%3D%22targetPoint%22%2F%3E%3CArray%20as%3D%22points%22%3E%3CmxPoint%20x%3D%22-1966.2599999999998%22%20y%3D%222180%22%2F%3E%3CmxPoint%20x%3D%22-1966%22%20y%3D%222170%22%2F%3E%3CmxPoint%20x%3D%22-1900%22%20y%3D%222170%22%2F%3E%3C%2FArray%3E%3C%2FmxGeometry%3E%3C%2FmxCell%3E%3CmxCell%20id%3D%2255%22%20value%3D%22displayEditForm(classDetail)%22%20style%3D%22text%3Bhtml%3D1%3Balign%3Dcenter%3BverticalAlign%3Dmiddle%3Bresizable%3D0%3Bpoints%3D%5B%5D%3Bautosize%3D1%3BstrokeColor%3Dnone%3BfillColor%3Dnone%3B%22%20vertex%3D%221%22%20parent%3D%221%22%3E%3CmxGeometry%20x%3D%22-2024.54%22%20y%3D%222125%22%20width%3D%22180%22%20height%3D%2230%22%20as%3D%22geometry%22%2F%3E%3C%2FmxCell%3E%3C%2Froot%3E%3C%2FmxGraphModel%3E&lt;/span&gt;validateSession()&lt;div&gt;&lt;div&gt;20. validateRequest()&lt;/div&gt;&lt;div&gt;38. validateRequest()&lt;/div&gt;&lt;/div&gt;&lt;div&gt;61. validateRequiest()&lt;/div&gt;&lt;div&gt;89. validateRequest()&lt;/div&gt;" style="text;html=1;align=center;verticalAlign=middle;resizable=0;points=[];autosize=1;strokeColor=none;fillColor=none;" vertex="1" parent="1"><mxGeometry x="3200.55" y="5810" width="140" height="90" as="geometry"/></mxCell><mxCell id="36" value="" style="endArrow=classic;html=1;rounded=0;exitX=0.25;exitY=0;exitDx=0;exitDy=0;entryX=0.75;entryY=0;entryDx=0;entryDy=0;" edge="1" parent="1" source="10" target="10"><mxGeometry width="50" height="50" relative="1" as="geometry"><mxPoint x="3776.55" y="5600" as="sourcePoint"/><mxPoint x="3906.55" y="5580" as="targetPoint"/><Array as="points"><mxPoint x="3810.29" y="5590"/><mxPoint x="3810.55" y="5580"/><mxPoint x="3876.55" y="5580"/></Array></mxGeometry></mxCell><mxCell id="37" value="40. validateUpdatedData(updatedData)" style="text;html=1;align=center;verticalAlign=middle;resizable=0;points=[];autosize=1;strokeColor=none;fillColor=none;" vertex="1" parent="1"><mxGeometry x="3727.01" y="5535" width="230" height="30" as="geometry"/></mxCell><mxCell id="38" value="&lt;div&gt;&lt;span style=&quot;background-color: transparent; color: light-dark(rgb(0, 0, 0), rgb(255, 255, 255));&quot;&gt;10. errorResponse(404, &quot;ไม่พบข้อมูล class&quot;)&lt;/span&gt;&lt;/div&gt;&lt;div&gt;&lt;div&gt;&lt;span style=&quot;background-color: transparent; color: light-dark(rgb(0, 0, 0), rgb(255, 255, 255));&quot;&gt;15. successResponse(200, classList)&lt;/span&gt;&lt;/div&gt;&lt;div&gt;&lt;/div&gt;&lt;/div&gt;" style="text;html=1;align=center;verticalAlign=middle;resizable=0;points=[];autosize=1;strokeColor=none;fillColor=none;" vertex="1" parent="1"><mxGeometry x="3470.6400000000003" y="5680" width="260" height="40" as="geometry"/></mxCell><mxCell id="39" style="edgeStyle=orthogonalEdgeStyle;rounded=0;orthogonalLoop=1;jettySize=auto;html=1;endArrow=none;startFill=0;exitX=1;exitY=0.5;exitDx=0;exitDy=0;" edge="1" parent="1" source="32"><mxGeometry relative="1" as="geometry"><mxPoint x="3845.6400000000003" y="5666" as="targetPoint"/><mxPoint x="3520.8500000000004" y="5955" as="sourcePoint"/><Array as="points"><mxPoint x="3455.6400000000003" y="5920"/><mxPoint x="3455.6400000000003" y="5830"/><mxPoint x="3845.6400000000003" y="5830"/><mxPoint x="3845.6400000000003" y="5666"/></Array></mxGeometry></mxCell><mxCell id="40" value="3. getJoinedClasses(userID)" style="text;html=1;align=center;verticalAlign=middle;resizable=0;points=[];autosize=1;strokeColor=none;fillColor=none;" vertex="1" parent="1"><mxGeometry x="3551.6400000000003" y="5775" width="170" height="30" as="geometry"/></mxCell><mxCell id="41" value="&amp;nbsp;" style="text;html=1;align=center;verticalAlign=middle;resizable=0;points=[];autosize=1;strokeColor=none;fillColor=none;" vertex="1" parent="1"><mxGeometry x="4062.46" y="5590" width="30" height="30" as="geometry"/></mxCell><mxCell id="42" value="&amp;nbsp;5.&amp;nbsp; selectJoinedClasses(userID)" style="text;html=1;align=center;verticalAlign=middle;resizable=0;points=[];autosize=1;strokeColor=none;fillColor=none;" vertex="1" parent="1"><mxGeometry x="4372.46" y="5570" width="200" height="30" as="geometry"/></mxCell><mxCell id="43" value="6. SELECT id, name, description FROM classes WHERE user_id=?" style="text;html=1;align=center;verticalAlign=middle;resizable=0;points=[];autosize=1;strokeColor=none;fillColor=none;" vertex="1" parent="1"><mxGeometry x="4722.46" y="5590" width="380" height="30" as="geometry"/></mxCell><mxCell id="44" value="7. classList" style="text;html=1;align=center;verticalAlign=middle;resizable=0;points=[];autosize=1;strokeColor=none;fillColor=none;" vertex="1" parent="1"><mxGeometry x="4872.55" y="5680" width="80" height="30" as="geometry"/></mxCell><mxCell id="45" value="&lt;div&gt;&lt;div&gt;8. [ไม่พบข้อมูล class] emptyList&lt;/div&gt;&lt;/div&gt;&lt;div&gt;13. [พบข้อมูล class] classList&lt;/div&gt;" style="text;html=1;align=center;verticalAlign=middle;resizable=0;points=[];autosize=1;strokeColor=none;fillColor=none;" vertex="1" parent="1"><mxGeometry x="4377.46" y="5680" width="190" height="40" as="geometry"/></mxCell><mxCell id="46" value="&lt;div&gt;&lt;span style=&quot;background-color: transparent; color: light-dark(rgb(0, 0, 0), rgb(255, 255, 255));&quot;&gt;9. returnError(&quot;ไม่พบข้อมูล class&quot;)&lt;/span&gt;&lt;/div&gt;&lt;div&gt;&lt;span style=&quot;background-color: transparent; color: light-dark(rgb(0, 0, 0), rgb(255, 255, 255));&quot;&gt;14.&amp;nbsp;&amp;nbsp;&lt;/span&gt;&lt;span style=&quot;background-color: transparent; color: light-dark(rgb(0, 0, 0), rgb(255, 255, 255));&quot;&gt;classList&lt;/span&gt;&lt;/div&gt;" style="text;html=1;align=center;verticalAlign=middle;resizable=0;points=[];autosize=1;strokeColor=none;fillColor=none;" vertex="1" parent="1"><mxGeometry x="3970.6400000000003" y="5680" width="200" height="40" as="geometry"/></mxCell><mxCell id="47" value="4. getJoinedClasses(userID)" style="text;html=1;align=center;verticalAlign=middle;resizable=0;points=[];autosize=1;strokeColor=none;fillColor=none;" vertex="1" parent="1"><mxGeometry x="3999.05" y="5575" width="170" height="30" as="geometry"/></mxCell><mxCell id="48" value="" style="endArrow=classic;html=1;rounded=0;" edge="1" parent="1"><mxGeometry width="50" height="50" relative="1" as="geometry"><mxPoint x="3426.55" y="5906" as="sourcePoint"/><mxPoint x="3825.6400000000003" y="5675" as="targetPoint"/><Array as="points"><mxPoint x="3446.55" y="5906"/><mxPoint x="3446.55" y="5816"/><mxPoint x="3825.6400000000003" y="5816"/><mxPoint x="3825.6400000000003" y="5740"/></Array></mxGeometry></mxCell><mxCell id="49" value=":CourseController" style="rounded=0;whiteSpace=wrap;html=1;" vertex="1" parent="1"><mxGeometry x="5505.64" y="5625" width="130.91" height="40" as="geometry"/></mxCell><mxCell id="50" value=":CourseService" style="rounded=0;whiteSpace=wrap;html=1;" vertex="1" parent="1"><mxGeometry x="5905.64" y="5625" width="130.91" height="40" as="geometry"/></mxCell><mxCell id="51" value=":CourseRepository" style="rounded=0;whiteSpace=wrap;html=1;" vertex="1" parent="1"><mxGeometry x="6305.64" y="5625" width="130.91" height="40" as="geometry"/></mxCell><mxCell id="52" style="edgeStyle=orthogonalEdgeStyle;rounded=0;orthogonalLoop=1;jettySize=auto;html=1;endArrow=none;startFill=0;" edge="1" parent="1"><mxGeometry relative="1" as="geometry"><mxPoint x="5905.64" y="5644.54" as="targetPoint"/><mxPoint x="5636.55" y="5644.95" as="sourcePoint"/></mxGeometry></mxCell><mxCell id="53" style="edgeStyle=orthogonalEdgeStyle;rounded=0;orthogonalLoop=1;jettySize=auto;html=1;endArrow=none;startFill=0;" edge="1" parent="1"><mxGeometry relative="1" as="geometry"><mxPoint x="6305.64" y="5644.549999999999" as="targetPoint"/><mxPoint x="6036.55" y="5644.959999999999" as="sourcePoint"/></mxGeometry></mxCell><mxCell id="54" value="&lt;div style=&quot;forced-color-adjust: none; box-shadow: none !important;&quot;&gt;21. getCourses(classID)&lt;/div&gt;&lt;div style=&quot;forced-color-adjust: none; box-shadow: none !important;&quot;&gt;&lt;br&gt;&lt;/div&gt;" style="text;whiteSpace=wrap;html=1;" vertex="1" parent="1"><mxGeometry x="4484.37" y="5870" width="139.09" height="30" as="geometry"/></mxCell><mxCell id="55" style="edgeStyle=orthogonalEdgeStyle;rounded=0;orthogonalLoop=1;jettySize=auto;html=1;endArrow=none;startFill=0;entryX=0.5;entryY=1;entryDx=0;entryDy=0;" edge="1" parent="1" target="49"><mxGeometry relative="1" as="geometry"><mxPoint x="3415.6400000000003" y="5920" as="sourcePoint"/><mxPoint x="5215.64" y="5860" as="targetPoint"/><Array as="points"><mxPoint x="5571.64" y="5919"/></Array></mxGeometry></mxCell><mxCell id="56" value="" style="endArrow=classic;html=1;rounded=0;" edge="1" parent="1"><mxGeometry width="50" height="50" relative="1" as="geometry"><mxPoint x="3425.6400000000003" y="5910" as="sourcePoint"/><mxPoint x="5555.64" y="5680" as="targetPoint"/><Array as="points"><mxPoint x="3645.6400000000003" y="5910"/><mxPoint x="4025.6400000000003" y="5910"/><mxPoint x="5545.64" y="5910"/><mxPoint x="5555.64" y="5910"/></Array></mxGeometry></mxCell><mxCell id="57" value="22. getCourses(classID)" style="text;html=1;align=center;verticalAlign=middle;resizable=0;points=[];autosize=1;strokeColor=none;fillColor=none;" vertex="1" parent="1"><mxGeometry x="5685.55" y="5595" width="150" height="30" as="geometry"/></mxCell><mxCell id="58" value="" style="endArrow=classic;html=1;rounded=0;" edge="1" parent="1"><mxGeometry width="50" height="50" relative="1" as="geometry"><mxPoint x="5645.64" y="5635" as="sourcePoint"/><mxPoint x="5885.64" y="5636" as="targetPoint"/></mxGeometry></mxCell><mxCell id="59" value="23. selectCoursesByClass(classID)" style="text;html=1;align=center;verticalAlign=middle;resizable=0;points=[];autosize=1;strokeColor=none;fillColor=none;" vertex="1" parent="1"><mxGeometry x="6055.64" y="5595" width="210" height="30" as="geometry"/></mxCell><mxCell id="60" value="" style="endArrow=classic;html=1;rounded=0;" edge="1" parent="1"><mxGeometry width="50" height="50" relative="1" as="geometry"><mxPoint x="6045.64" y="5634" as="sourcePoint"/><mxPoint x="6285.64" y="5635" as="targetPoint"/></mxGeometry></mxCell><mxCell id="61" value="" style="endArrow=classic;html=1;rounded=0;" edge="1" parent="1"><mxGeometry width="50" height="50" relative="1" as="geometry"><mxPoint x="4736.55" y="5639.38" as="sourcePoint"/><mxPoint x="5106.55" y="5640" as="targetPoint"/></mxGeometry></mxCell><mxCell id="62" style="edgeStyle=orthogonalEdgeStyle;rounded=0;orthogonalLoop=1;jettySize=auto;html=1;endArrow=none;startFill=0;exitX=0.5;exitY=0;exitDx=0;exitDy=0;entryX=0.5;entryY=0;entryDx=0;entryDy=0;" edge="1" parent="1" source="23" target="51"><mxGeometry relative="1" as="geometry"><mxPoint x="6195.64" y="5580" as="targetPoint"/><mxPoint x="5215.64" y="5535.41" as="sourcePoint"/><Array as="points"><mxPoint x="5171.64" y="5510"/><mxPoint x="6371.64" y="5510"/></Array></mxGeometry></mxCell><mxCell id="63" value="" style="endArrow=classic;html=1;rounded=0;" edge="1" parent="1"><mxGeometry width="50" height="50" relative="1" as="geometry"><mxPoint x="6385.64" y="5620" as="sourcePoint"/><mxPoint x="5155.64" y="5620" as="targetPoint"/><Array as="points"><mxPoint x="6385.64" y="5490"/><mxPoint x="5155.55" y="5490"/></Array></mxGeometry></mxCell><mxCell id="64" value="24. SELECT id, title, description FROM courses WHERE class_id=?" style="text;html=1;align=center;verticalAlign=middle;resizable=0;points=[];autosize=1;strokeColor=none;fillColor=none;" vertex="1" parent="1"><mxGeometry x="5737.910000000001" y="5460" width="390" height="30" as="geometry"/></mxCell><mxCell id="65" value="" style="endArrow=classic;html=1;rounded=0;dashed=1;" edge="1" parent="1"><mxGeometry width="50" height="50" relative="1" as="geometry"><mxPoint x="5185.64" y="5610" as="sourcePoint"/><mxPoint x="6355.64" y="5610" as="targetPoint"/><Array as="points"><mxPoint x="5185.64" y="5530"/><mxPoint x="6355.64" y="5530"/></Array></mxGeometry></mxCell><mxCell id="66" value="25. courseList" style="text;html=1;align=center;verticalAlign=middle;resizable=0;points=[];autosize=1;strokeColor=none;fillColor=none;" vertex="1" parent="1"><mxGeometry x="5317.37" y="5540" width="100" height="30" as="geometry"/></mxCell><mxCell id="67" style="edgeStyle=orthogonalEdgeStyle;rounded=0;orthogonalLoop=1;jettySize=auto;html=1;endArrow=none;startFill=0;exitX=0.5;exitY=0;exitDx=0;exitDy=0;entryX=0.5;entryY=0;entryDx=0;entryDy=0;" edge="1" parent="1" source="7" target="49"><mxGeometry relative="1" as="geometry"><mxPoint x="6375.64" y="5615" as="targetPoint"/><mxPoint x="5175.64" y="5620" as="sourcePoint"/><Array as="points"><mxPoint x="3350.6400000000003" y="5450"/><mxPoint x="5571.64" y="5450"/></Array></mxGeometry></mxCell><mxCell id="68" value="" style="endArrow=classic;html=1;rounded=0;" edge="1" parent="1"><mxGeometry width="50" height="50" relative="1" as="geometry"><mxPoint x="5581.64" y="5610" as="sourcePoint"/><mxPoint x="3341.6400000000003" y="5610" as="targetPoint"/><Array as="points"><mxPoint x="5581.64" y="5430"/><mxPoint x="3341.6400000000003" y="5430"/></Array></mxGeometry></mxCell><mxCell id="69" value="" style="endArrow=classic;html=1;rounded=0;dashed=1;" edge="1" parent="1"><mxGeometry width="50" height="50" relative="1" as="geometry"><mxPoint x="6285.64" y="5660" as="sourcePoint"/><mxPoint x="6051.64" y="5660" as="targetPoint"/></mxGeometry></mxCell><mxCell id="70" value="" style="endArrow=classic;html=1;rounded=0;dashed=1;" edge="1" parent="1"><mxGeometry width="50" height="50" relative="1" as="geometry"><mxPoint x="5885.64" y="5655" as="sourcePoint"/><mxPoint x="5651.64" y="5655" as="targetPoint"/></mxGeometry></mxCell><mxCell id="71" value="&amp;nbsp;" style="text;html=1;align=center;verticalAlign=middle;resizable=0;points=[];autosize=1;strokeColor=none;fillColor=none;" vertex="1" parent="1"><mxGeometry x="4476.64" y="5365" width="30" height="30" as="geometry"/></mxCell><mxCell id="72" value="18. เลือก class ที่ต้องการ&lt;div&gt;36. เลือก course ที่ต้องการ&lt;/div&gt;&lt;div&gt;59. เลือก quiz ที่ต้องการ&lt;/div&gt;&lt;div&gt;87. ทำแบบทดสอบและกด &quot;บันทึกคำตอบ&quot;&lt;/div&gt;" style="text;html=1;align=center;verticalAlign=middle;resizable=0;points=[];autosize=1;strokeColor=none;fillColor=none;" vertex="1" parent="1"><mxGeometry x="2599.7300000000005" y="5560" width="230" height="70" as="geometry"/></mxCell><mxCell id="73" value="26. [ไม่พบข้อมูล course] emptyList&lt;div&gt;31. [พบข้อมูล course] courseList&lt;/div&gt;" style="text;html=1;align=center;verticalAlign=middle;resizable=0;points=[];autosize=1;strokeColor=none;fillColor=none;" vertex="1" parent="1"><mxGeometry x="6069.64" y="5670" width="200" height="40" as="geometry"/></mxCell><mxCell id="74" value="27. returnError(&quot;ไม่พบข้อมูล course&quot;)&lt;div&gt;32. courseList&lt;/div&gt;" style="text;html=1;align=center;verticalAlign=middle;resizable=0;points=[];autosize=1;strokeColor=none;fillColor=none;" vertex="1" parent="1"><mxGeometry x="5671.01" y="5670" width="220" height="40" as="geometry"/></mxCell><mxCell id="75" value="&lt;div&gt;28.&amp;nbsp;&lt;span style=&quot;color: light-dark(rgb(0, 0, 0), rgb(255, 255, 255)); background-color: transparent;&quot;&gt;errorResponse(404, &quot;ไม่พบข้อมูล course&quot;)&lt;/span&gt;&lt;/div&gt;&lt;div&gt;&lt;span style=&quot;color: light-dark(rgb(0, 0, 0), rgb(255, 255, 255)); background-color: transparent;&quot;&gt;33. successResponse(200, courseList)&lt;/span&gt;&lt;/div&gt;" style="text;html=1;align=center;verticalAlign=middle;resizable=0;points=[];autosize=1;strokeColor=none;fillColor=none;" vertex="1" parent="1"><mxGeometry x="4366.64" y="5385" width="260" height="40" as="geometry"/></mxCell><mxCell id="76" value=":QuizController" style="rounded=0;whiteSpace=wrap;html=1;" vertex="1" parent="1"><mxGeometry x="6625.64" y="5625" width="130.91" height="40" as="geometry"/></mxCell><mxCell id="77" value=":QuizService" style="rounded=0;whiteSpace=wrap;html=1;" vertex="1" parent="1"><mxGeometry x="7025.64" y="5625" width="130.91" height="40" as="geometry"/></mxCell><mxCell id="78" value=":QuizRepository" style="rounded=0;whiteSpace=wrap;html=1;" vertex="1" parent="1"><mxGeometry x="7425.64" y="5625" width="130.91" height="40" as="geometry"/></mxCell><mxCell id="79" style="edgeStyle=orthogonalEdgeStyle;rounded=0;orthogonalLoop=1;jettySize=auto;html=1;endArrow=none;startFill=0;" edge="1" parent="1"><mxGeometry relative="1" as="geometry"><mxPoint x="7025.64" y="5644.54" as="targetPoint"/><mxPoint x="6756.55" y="5644.95" as="sourcePoint"/></mxGeometry></mxCell><mxCell id="80" style="edgeStyle=orthogonalEdgeStyle;rounded=0;orthogonalLoop=1;jettySize=auto;html=1;endArrow=none;startFill=0;" edge="1" parent="1"><mxGeometry relative="1" as="geometry"><mxPoint x="7425.64" y="5644.549999999999" as="targetPoint"/><mxPoint x="7156.55" y="5644.959999999999" as="sourcePoint"/></mxGeometry></mxCell><mxCell id="81" value="40. getQuizzes(courseID)&lt;div&gt;&amp;nbsp;63. getQuizHistory(quizID, userID)&lt;/div&gt;&lt;div&gt;91. saveQuizAnswers(answersData, userID, quizID)&lt;/div&gt;&lt;div&gt;105. INSERT result&lt;/div&gt;" style="text;html=1;align=center;verticalAlign=middle;resizable=0;points=[];autosize=1;strokeColor=none;fillColor=none;" vertex="1" parent="1"><mxGeometry x="6730.55" y="5560" width="300" height="70" as="geometry"/></mxCell><mxCell id="82" value="" style="endArrow=classic;html=1;rounded=0;" edge="1" parent="1"><mxGeometry width="50" height="50" relative="1" as="geometry"><mxPoint x="6765.64" y="5635" as="sourcePoint"/><mxPoint x="7005.64" y="5636" as="targetPoint"/></mxGeometry></mxCell><mxCell id="83" value="41. selectQuizzesByCourse(courseID)&lt;div&gt;64. selectQuizHistory(quizID, userID)&lt;/div&gt;&lt;div&gt;96. [ข้อมูลที่ส่งมาครบถ้วน] insertQuizHistory(...)&lt;/div&gt;" style="text;html=1;align=center;verticalAlign=middle;resizable=0;points=[];autosize=1;strokeColor=none;fillColor=none;" vertex="1" parent="1"><mxGeometry x="7145.64" y="5560" width="270" height="60" as="geometry"/></mxCell><mxCell id="84" value="" style="endArrow=classic;html=1;rounded=0;" edge="1" parent="1"><mxGeometry width="50" height="50" relative="1" as="geometry"><mxPoint x="7165.64" y="5634" as="sourcePoint"/><mxPoint x="7405.64" y="5635" as="targetPoint"/></mxGeometry></mxCell><mxCell id="85" value="" style="endArrow=classic;html=1;rounded=0;dashed=1;" edge="1" parent="1"><mxGeometry width="50" height="50" relative="1" as="geometry"><mxPoint x="7405.64" y="5660" as="sourcePoint"/><mxPoint x="7171.64" y="5660" as="targetPoint"/></mxGeometry></mxCell><mxCell id="86" value="" style="endArrow=classic;html=1;rounded=0;dashed=1;" edge="1" parent="1"><mxGeometry width="50" height="50" relative="1" as="geometry"><mxPoint x="7005.64" y="5655" as="sourcePoint"/><mxPoint x="6771.64" y="5655" as="targetPoint"/></mxGeometry></mxCell><mxCell id="87" value="&lt;div&gt;54. [quizBaseList, choiceQuizzes, choiceAnswers,&amp;nbsp;&lt;/div&gt;&lt;div&gt;orderingQuizzes, orderingAnswers, missingWordsQuizzes]&lt;/div&gt;&lt;div&gt;79. [quizHistories, choiceHistories,&amp;nbsp;&lt;/div&gt;&lt;div&gt;orderingHistories, missingWordsHistories]&lt;/div&gt;" style="text;html=1;align=center;verticalAlign=middle;resizable=0;points=[];autosize=1;strokeColor=none;fillColor=none;" vertex="1" parent="1"><mxGeometry x="7110.64" y="5680" width="340" height="70" as="geometry"/></mxCell><mxCell id="88" value="&lt;div&gt;55. quizList&lt;/div&gt;&lt;div&gt;80. quizHistory&lt;/div&gt;&lt;div&gt;92. [ข้อมูลไม่ครบถ้วน] returnError(&quot;ข้อมูลไม่ ครบถ้วน&quot;)&lt;/div&gt;&lt;div&gt;106. [บันทึกคำตอบสำเร็จ] success&lt;/div&gt;" style="text;html=1;align=center;verticalAlign=middle;resizable=0;points=[];autosize=1;strokeColor=none;fillColor=none;" vertex="1" parent="1"><mxGeometry x="6740.64" y="5675" width="300" height="70" as="geometry"/></mxCell><mxCell id="89" style="edgeStyle=orthogonalEdgeStyle;rounded=0;orthogonalLoop=1;jettySize=auto;html=1;endArrow=none;startFill=0;entryX=0.5;entryY=1;entryDx=0;entryDy=0;exitX=0.5;exitY=1;exitDx=0;exitDy=0;" edge="1" parent="1" source="32" target="76"><mxGeometry relative="1" as="geometry"><mxPoint x="3425.6400000000003" y="5930" as="sourcePoint"/><mxPoint x="5580.64" y="5675" as="targetPoint"/><Array as="points"><mxPoint x="3350.6400000000003" y="5980"/><mxPoint x="6690.64" y="5980"/></Array></mxGeometry></mxCell><mxCell id="90" value="" style="endArrow=classic;html=1;rounded=0;" edge="1" parent="1"><mxGeometry width="50" height="50" relative="1" as="geometry"><mxPoint x="3365.6400000000003" y="5960" as="sourcePoint"/><mxPoint x="6675.64" y="5680" as="targetPoint"/><Array as="points"><mxPoint x="3365.6400000000003" y="5950"/><mxPoint x="3365.6400000000003" y="5970"/><mxPoint x="4055.6400000000003" y="5970"/><mxPoint x="6675.64" y="5970"/></Array></mxGeometry></mxCell><mxCell id="91" value="39. getQuizzes(courseID)&lt;div&gt;62. getQuizHistory(quizID, userID)&lt;/div&gt;&lt;div&gt;90. saveQuizAnswers(answersData, userID, quizID)&lt;/div&gt;" style="text;html=1;align=center;verticalAlign=middle;resizable=0;points=[];autosize=1;strokeColor=none;fillColor=none;" vertex="1" parent="1"><mxGeometry x="5974.64" y="5900" width="300" height="60" as="geometry"/></mxCell><mxCell id="92" style="edgeStyle=orthogonalEdgeStyle;rounded=0;orthogonalLoop=1;jettySize=auto;html=1;endArrow=none;startFill=0;exitX=0.5;exitY=1;exitDx=0;exitDy=0;entryX=0.5;entryY=1;entryDx=0;entryDy=0;" edge="1" parent="1" source="23" target="78"><mxGeometry relative="1" as="geometry"><mxPoint x="6380.64" y="5635" as="targetPoint"/><mxPoint x="5180.64" y="5640" as="sourcePoint"/><Array as="points"><mxPoint x="5171.64" y="5800"/><mxPoint x="7490.64" y="5800"/></Array></mxGeometry></mxCell><mxCell id="93" value="" style="endArrow=classic;html=1;rounded=0;" edge="1" parent="1"><mxGeometry width="50" height="50" relative="1" as="geometry"><mxPoint x="7505.64" y="5670" as="sourcePoint"/><mxPoint x="5155.64" y="5690" as="targetPoint"/><Array as="points"><mxPoint x="7505.64" y="5810"/><mxPoint x="5155.64" y="5810"/></Array></mxGeometry></mxCell><mxCell id="94" value="&amp;nbsp;" style="text;html=1;align=center;verticalAlign=middle;resizable=0;points=[];autosize=1;strokeColor=none;fillColor=none;" vertex="1" parent="1"><mxGeometry x="6095.64" y="5830" width="30" height="30" as="geometry"/></mxCell><mxCell id="95" value="42.&amp;nbsp; SELECT id, title, type FROM quizzes WHERE course_id=?&lt;div&gt;44. SELECT quiz_id FROM choice_quizzes WHERE course_id=?&lt;/div&gt;&lt;div&gt;46. SELECT choice_quiz_id , answer_text FROM choice_answers WHERE course_id=?&lt;/div&gt;&lt;div&gt;48. SELECT quiz_id, some_field FROM ordering_quizzes WHERE course_id=?&lt;/div&gt;&lt;div&gt;50. SELECT ordering_quiz_id, answer_sequence FROM ordering_answers WHERE course_id=?&lt;/div&gt;&lt;div&gt;52. SELECT quiz_id, some_field FROM missing_words_quizzes WHERE course_id=?&lt;/div&gt;&lt;div&gt;65. SELECT id, user_id, note FROM quiz_histories WHERE quiz_id=? AND user_id=?&lt;/div&gt;&lt;div&gt;67. SELECT history_id, selected_choice FROM choice_histories WHERE quiz_id=? AND user_id?&lt;/div&gt;&lt;div&gt;69. SELECT history_id, answer_sequence FROM ordering_histories WHERE quiz_id=? AND user_id=?&lt;/div&gt;&lt;div&gt;71. SELECT history_id, missing_word FROM missing_words_histories WHERE quiz_id=? AND user_id=?&lt;/div&gt;&lt;div&gt;97. INSERT INTO quiz_histories (id, user_id, quiz_id, note) VALUES (?,?,?,?)&lt;/div&gt;&lt;div&gt;99. INSERT INTO choice_histories (history_id, selected_choice) VALUES (?,?)&lt;/div&gt;&lt;div&gt;101. INSERT INTO ordering_histories (history_id, answer_sequence) VALUES (?,?)&lt;/div&gt;&lt;div&gt;103. INSERT INTO missing_words_histories (history_id, missing_word) VALUES (?,?)&lt;/div&gt;" style="text;html=1;align=center;verticalAlign=middle;resizable=0;points=[];autosize=1;strokeColor=none;fillColor=none;" vertex="1" parent="1"><mxGeometry x="6785.64" y="5825" width="580" height="210" as="geometry"/></mxCell><mxCell id="96" value="" style="endArrow=classic;html=1;rounded=0;dashed=1;" edge="1" parent="1"><mxGeometry width="50" height="50" relative="1" as="geometry"><mxPoint x="5185.64" y="5700" as="sourcePoint"/><mxPoint x="7475.64" y="5680" as="targetPoint"/><Array as="points"><mxPoint x="5185.64" y="5790"/><mxPoint x="7475.64" y="5790"/></Array></mxGeometry></mxCell><mxCell id="97" value="&amp;nbsp;43. [quizBaseList]&lt;div&gt;45. [choiceQuizzes]&lt;/div&gt;&lt;div&gt;47. [choicseAnswers]&lt;/div&gt;&lt;div&gt;49. [orderingQuizzes]&lt;/div&gt;&lt;div&gt;51. [orderingAnswers]&lt;/div&gt;&lt;div&gt;53. [missingWordsQuizzes]&amp;nbsp;&lt;/div&gt;&lt;div&gt;72. [quizHistories]&lt;/div&gt;&lt;div&gt;74. [choiceHistories]&lt;/div&gt;&lt;div&gt;76. [orderingHistories]&lt;/div&gt;&lt;div&gt;78. [missingWordsHistories]&lt;/div&gt;&lt;div&gt;98. success&lt;/div&gt;&lt;div&gt;100. success&lt;/div&gt;&lt;div&gt;102. success&lt;/div&gt;&lt;div&gt;104. success&lt;/div&gt;" style="text;html=1;align=center;verticalAlign=middle;resizable=0;points=[];autosize=1;strokeColor=none;fillColor=none;" vertex="1" parent="1"><mxGeometry x="6445.64" y="5575" width="170" height="210" as="geometry"/></mxCell><mxCell id="98" value="" style="endArrow=classic;html=1;rounded=0;" edge="1" parent="1" source="76"><mxGeometry width="50" height="50" relative="1" as="geometry"><mxPoint x="6695.64" y="5620" as="sourcePoint"/><mxPoint x="3325.6400000000003" y="5610" as="targetPoint"/><Array as="points"><mxPoint x="6690.64" y="5360"/><mxPoint x="3325.6400000000003" y="5360"/></Array></mxGeometry></mxCell><mxCell id="99" value="56. successResquest(200, quizList)&lt;div&gt;81. [ไม่พบประวัติ]&amp;nbsp;&lt;span style=&quot;background-color: transparent; color: light-dark(rgb(0, 0, 0), rgb(255, 255, 255));&quot;&gt;successResponse(200, &quot;noHistory&quot;)&lt;/span&gt;&lt;/div&gt;&lt;div&gt;84. [พบประวัติ] successResponse(200, &quot;quizHistory&quot;)&lt;/div&gt;&lt;div&gt;93. errorResponse(400, &quot;ข้อมูลไม่ครบถ้วน&quot;)&lt;/div&gt;&lt;div&gt;107. successResponse(200, &quot;บันทึกคำตอบสำเร็จ&quot;)&lt;/div&gt;&lt;div&gt;110. [บันทึกคำตอบไม่สำเร็จ] errorResponse(500, &quot;บันทึกคำตอบไม่สำเร็จ&quot;)&lt;/div&gt;" style="text;html=1;align=center;verticalAlign=middle;resizable=0;points=[];autosize=1;strokeColor=none;fillColor=none;" vertex="1" parent="1"><mxGeometry x="5491.01" y="5260" width="400" height="100" as="geometry"/></mxCell></root></mxGraphModel></diagram></mxfile>